<?xml version="1.0" standalone="no"?>
<!DOCTYPE svg PUBLIC "-//W3C//DTD SVG 20010904//EN"
 "http://www.w3.org/TR/2001/REC-SVG-20010904/DTD/svg10.dtd">
<svg version="1.0" xmlns="http://www.w3.org/2000/svg"
 width="512.000000pt" height="512.000000pt" viewBox="0 0 512.000000 512.000000"
 preserveAspectRatio="xMidYMid meet">

<g transform="translate(0.000000,512.000000) scale(0.100000,-0.100000)"
fill="#000000" stroke="none">
<path d="M2734 5101 c-12 -5 -33 -25 -47 -43 -21 -28 -1655 -2887 -1700 -2975
-27 -52 -22 -90 17 -129 l34 -34 706 0 c388 0 706 -3 706 -8 0 -4 -40 -399
-90 -877 -49 -478 -90 -889 -90 -912 0 -84 87 -138 155 -95 24 15 207 333 875
1523 609 1084 846 1514 848 1541 4 32 -1 43 -31 73 l-35 35 -716 0 c-631 0
-716 2 -716 15 0 8 52 410 115 893 63 483 115 890 115 905 0 60 -88 113 -146
88z"/>
</g>
</svg>
